<svg width="30" height="30" viewBox="0 0 32 32" fill="none" xmlns="http://www.w3.org/2000/svg">
<path d="M16 0C14.5222 0 13.1056 0.188889 11.75 0.566667C10.3944 0.944444 9.11666 1.47778 7.91667 2.16667C6.71667 2.85556 5.63889 3.68889 4.68333 4.66667C3.72778 5.64444 2.89444 6.72778 2.18333 7.91667C1.47222 9.10556 0.933332 10.3778 0.566666 11.7333C0.199999 13.0889 0.0111103 14.5111 0 16C0 17.4778 0.188887 18.8944 0.566666 20.25C0.944443 21.6056 1.47778 22.8833 2.16667 24.0833C2.85555 25.2833 3.68889 26.3611 4.66667 27.3167C5.64444 28.2722 6.72778 29.1056 7.91667 29.8167C9.10555 30.5278 10.3778 31.0667 11.7333 31.4333C13.0889 31.8 14.5111 31.9889 16 32C17.4778 32 18.8944 31.8111 20.25 31.4333C21.6056 31.0556 22.8833 30.5222 24.0833 29.8333C25.2833 29.1444 26.3611 28.3111 27.3167 27.3333C28.2722 26.3556 29.1056 25.2722 29.8167 24.0833C30.5278 22.8944 31.0667 21.6222 31.4333 20.2667C31.8 18.9111 31.9889 17.4889 32 16C32 14.5222 31.8111 13.1056 31.4333 11.75C31.0556 10.3944 30.5222 9.11667 29.8333 7.91667C29.1444 6.71667 28.3111 5.63889 27.3333 4.68333C26.3556 3.72778 25.2722 2.89444 24.0833 2.18333C22.8944 1.47222 21.6222 0.933333 20.2667 0.566667C18.9111 0.2 17.4889 0.0111111 16 0ZM16 29.8667C14.7222 29.8667 13.4944 29.7 12.3167 29.3667C11.1389 29.0333 10.0389 28.5667 9.01667 27.9667C7.99444 27.3667 7.05555 26.6444 6.2 25.8C5.34444 24.9556 4.62222 24.0222 4.03333 23C3.44444 21.9778 2.97778 20.8722 2.63333 19.6833C2.28889 18.4944 2.12222 17.2667 2.13333 16C2.13333 14.7222 2.3 13.4944 2.63333 12.3167C2.96667 11.1389 3.43333 10.0389 4.03333 9.01667C4.63333 7.99444 5.35555 7.05556 6.2 6.2C7.04444 5.34444 7.97778 4.62222 9 4.03333C10.0222 3.44444 11.1278 2.97778 12.3167 2.63333C13.5056 2.28889 14.7333 2.12222 16 2.13333C17.2778 2.13333 18.5056 2.3 19.6833 2.63333C20.8611 2.96667 21.9611 3.43333 22.9833 4.03333C24.0056 4.63333 24.9444 5.35556 25.8 6.2C26.6556 7.04445 27.3778 7.97778 27.9667 9C28.5556 10.0222 29.0222 11.1278 29.3667 12.3167C29.7111 13.5056 29.8778 14.7333 29.8667 16C29.8667 17.2778 29.7 18.5056 29.3667 19.6833C29.0333 20.8611 28.5667 21.9611 27.9667 22.9833C27.3667 24.0056 26.6444 24.9444 25.8 25.8C24.9556 26.6556 24.0222 27.3778 23 27.9667C21.9778 28.5556 20.8722 29.0222 19.6833 29.3667C18.4944 29.7111 17.2667 29.8778 16 29.8667ZM16.75 10.3667L15.25 8.83333L8.01666 16L15.25 23.1667L16.75 21.6333L12.1167 17.0667H23.4667V14.9333H12.1167L16.75 10.3667Z" fill="black" fill-opacity="0.2"/>
</svg>
