<svg width="32" height="32" viewBox="0 0 32 32" fill="none" xmlns="http://www.w3.org/2000/svg">
<path d="M16 0C17.4778 0 18.8944 0.188889 20.25 0.566667C21.6056 0.944444 22.8833 1.47778 24.0833 2.16667C25.2833 2.85556 26.3611 3.68889 27.3167 4.66667C28.2722 5.64444 29.1056 6.72778 29.8167 7.91667C30.5278 9.10556 31.0667 10.3778 31.4333 11.7333C31.8 13.0889 31.9889 14.5111 32 16C32 17.4778 31.8111 18.8944 31.4333 20.25C31.0556 21.6056 30.5222 22.8833 29.8333 24.0833C29.1444 25.2833 28.3111 26.3611 27.3333 27.3167C26.3556 28.2722 25.2722 29.1056 24.0833 29.8167C22.8944 30.5278 21.6222 31.0667 20.2667 31.4333C18.9111 31.8 17.4889 31.9889 16 32C14.5222 32 13.1056 31.8111 11.75 31.4333C10.3944 31.0556 9.11667 30.5222 7.91667 29.8333C6.71667 29.1444 5.63889 28.3111 4.68333 27.3333C3.72778 26.3556 2.89444 25.2722 2.18333 24.0833C1.47222 22.8944 0.933333 21.6222 0.566667 20.2667C0.2 18.9111 0.0111111 17.4889 0 16C0 14.5222 0.188889 13.1056 0.566667 11.75C0.944444 10.3944 1.47778 9.11667 2.16667 7.91667C2.85556 6.71667 3.68889 5.63889 4.66667 4.68333C5.64444 3.72778 6.72778 2.89444 7.91667 2.18333C9.10556 1.47222 10.3778 0.933333 11.7333 0.566667C13.0889 0.2 14.5111 0.0111111 16 0ZM16 29.8667C17.2778 29.8667 18.5056 29.7 19.6833 29.3667C20.8611 29.0333 21.9611 28.5667 22.9833 27.9667C24.0056 27.3667 24.9444 26.6444 25.8 25.8C26.6556 24.9556 27.3778 24.0222 27.9667 23C28.5556 21.9778 29.0222 20.8722 29.3667 19.6833C29.7111 18.4944 29.8778 17.2667 29.8667 16C29.8667 14.7222 29.7 13.4944 29.3667 12.3167C29.0333 11.1389 28.5667 10.0389 27.9667 9.01667C27.3667 7.99444 26.6444 7.05556 25.8 6.2C24.9556 5.34444 24.0222 4.62222 23 4.03333C21.9778 3.44444 20.8722 2.97778 19.6833 2.63333C18.4944 2.28889 17.2667 2.12222 16 2.13333C14.7222 2.13333 13.4944 2.3 12.3167 2.63333C11.1389 2.96667 10.0389 3.43333 9.01667 4.03333C7.99444 4.63333 7.05556 5.35556 6.2 6.2C5.34444 7.04445 4.62222 7.97778 4.03333 9C3.44444 10.0222 2.97778 11.1278 2.63333 12.3167C2.28889 13.5056 2.12222 14.7333 2.13333 16C2.13333 17.2778 2.3 18.5056 2.63333 19.6833C2.96667 20.8611 3.43333 21.9611 4.03333 22.9833C4.63333 24.0056 5.35556 24.9444 6.2 25.8C7.04445 26.6556 7.97778 27.3778 9 27.9667C10.0222 28.5556 11.1278 29.0222 12.3167 29.3667C13.5056 29.7111 14.7333 29.8778 16 29.8667ZM15.25 10.3667L16.75 8.83333L23.9833 16L16.75 23.1667L15.25 21.6333L19.8833 17.0667H8.53333V14.9333H19.8833L15.25 10.3667Z" fill="black"/>
</svg>
