<svg width="153" height="166" viewBox="0 0 153 166" fill="none" xmlns="http://www.w3.org/2000/svg">
<path d="M0.548828 158C0.548828 162.418 4.13055 166 8.54883 166C12.9671 166 16.5488 162.418 16.5488 158C16.5488 153.582 12.9671 150 8.54883 150C4.13055 150 0.548828 153.582 0.548828 158ZM124.8 1.83113C133.435 14.8037 141.466 31.0069 145.909 47.989C150.353 64.9766 151.181 82.6426 145.547 98.6263C134.348 130.396 97.1679 156.5 8.54883 156.5V159.5C97.5297 159.5 136.516 133.271 148.376 99.6237C154.271 82.8991 153.351 64.5859 148.811 47.2297C144.269 29.8681 136.08 13.363 127.298 0.168868L124.8 1.83113Z" fill="#20C6B1"/>
</svg>
