<svg width="155" height="180" viewBox="0 0 155 180" fill="none" xmlns="http://www.w3.org/2000/svg">
<path d="M0.548828 7.99998C0.548828 12.4183 4.13055 16 8.54883 16C12.9671 16 16.5488 12.4183 16.5488 7.99998C16.5488 3.5817 12.9671 -1.7643e-05 8.54883 -1.7643e-05C4.13055 -1.7643e-05 0.548828 3.5817 0.548828 7.99998ZM121.049 171.5C121.049 175.918 124.631 179.5 129.049 179.5C133.467 179.5 137.049 175.918 137.049 171.5C137.049 167.082 133.467 163.5 129.049 163.5C124.631 163.5 121.049 167.082 121.049 171.5ZM8.79209 9.48012C26.6816 6.53996 47.8472 5.33991 68.327 7.65766C88.8215 9.97705 108.512 15.8056 123.563 26.8229C138.56 37.8011 149.031 53.9841 151.083 77.2583C153.141 100.602 146.735 131.179 127.696 170.851L130.401 172.149C149.563 132.221 156.195 101.082 154.071 76.9948C151.942 52.8388 141.012 35.878 125.335 24.4021C109.711 12.9652 89.4512 7.02917 68.6644 4.67669C47.863 2.32255 26.4161 3.54334 8.30556 6.51984L8.79209 9.48012Z" fill="#20C6B1"/>
</svg>
