<svg width="20" height="19" viewBox="0 0 20 19" fill="none" xmlns="http://www.w3.org/2000/svg">
<path d="M20 16.3457V5.76367C20 4.78777 19.2122 4 18.2363 4H1.76367C0.787772 4 0 4.78777 0 5.76367V16.3457C0 17.3216 0.787772 18.1093 1.76367 18.1093H18.2363C19.2122 18.1093 20 17.3216 20 16.3457ZM18.4597 5.63433C18.8477 6.02234 18.6361 6.4221 18.4245 6.62199L13.6508 10.9959L18.2363 15.7695C18.3774 15.9342 18.4715 16.1928 18.3069 16.3692C18.154 16.5573 17.8013 16.5456 17.6484 16.428L12.5103 12.0423L9.99412 14.3351L7.48971 12.0423L2.35156 16.428C2.19871 16.5456 1.84597 16.5573 1.69312 16.3692C1.52851 16.1928 1.62257 15.9342 1.76367 15.7695L6.34921 10.9959L1.57554 6.62199C1.3639 6.4221 1.15226 6.02234 1.54027 5.63433C1.92828 5.24633 2.32804 5.43445 2.65726 5.71664L9.99412 11.6426L17.3427 5.71664C17.672 5.43445 18.0717 5.24633 18.4597 5.63433Z" fill="#20C6B1"/>
</svg>
