<svg width="31" height="30" viewBox="0 0 31 30" fill="none" xmlns="http://www.w3.org/2000/svg">
<circle cx="15.9419" cy="15" r="15" fill="#D9D9D9"/>
<circle cx="15.9419" cy="15" r="15" fill="white"/>
<path d="M15.5126 18.116C15.1446 18.116 14.9606 17.928 14.9606 17.552V15.584H13.0286C12.6686 15.584 12.4886 15.408 12.4886 15.056C12.4886 14.704 12.6686 14.528 13.0286 14.528H14.9606V12.62C14.9606 12.252 15.1446 12.068 15.5126 12.068C15.8806 12.068 16.0646 12.252 16.0646 12.62V14.528H17.9966C18.3566 14.528 18.5366 14.704 18.5366 15.056C18.5366 15.408 18.3566 15.584 17.9966 15.584H16.0646V17.552C16.0646 17.928 15.8806 18.116 15.5126 18.116Z" fill="black"/>
</svg>
