<svg width="34" height="42" viewBox="0 0 34 42" fill="none" xmlns="http://www.w3.org/2000/svg">
<path d="M8.83341 26.8333C8.524 26.8333 8.22725 26.7104 8.00846 26.4916C7.78966 26.2728 7.66675 25.9761 7.66675 25.6667C7.66675 25.3572 7.78966 25.0605 8.00846 24.8417C8.22725 24.6229 8.524 24.5 8.83341 24.5H25.1667C25.4762 24.5 25.7729 24.6229 25.9917 24.8417C26.2105 25.0605 26.3334 25.3572 26.3334 25.6667C26.3334 25.9761 26.2105 26.2728 25.9917 26.4916C25.7729 26.7104 25.4762 26.8333 25.1667 26.8333H8.83341ZM8.83341 32.6667C8.524 32.6667 8.22725 32.5438 8.00846 32.325C7.78966 32.1062 7.66675 31.8094 7.66675 31.5C7.66675 31.1906 7.78966 30.8938 8.00846 30.675C8.22725 30.4562 8.524 30.3333 8.83341 30.3333H25.1667C25.4762 30.3333 25.7729 30.4562 25.9917 30.675C26.2105 30.8938 26.3334 31.1906 26.3334 31.5C26.3334 31.8094 26.2105 32.1062 25.9917 32.325C25.7729 32.5438 25.4762 32.6667 25.1667 32.6667H8.83341Z" fill="white"/>
<path fill-rule="evenodd" clip-rule="evenodd" d="M19.7651 3.26065e-07H4.16675C3.23849 3.26065e-07 2.34825 0.368749 1.69187 1.02513C1.0355 1.6815 0.666748 2.57174 0.666748 3.5V38.5C0.666748 39.4283 1.0355 40.3185 1.69187 40.9749C2.34825 41.6312 3.23849 42 4.16675 42H29.8334C30.7617 42 31.6519 41.6312 32.3083 40.9749C32.9647 40.3185 33.3334 39.4283 33.3334 38.5V14.4713C33.3332 13.5951 33.0043 12.7508 32.4117 12.1053L22.3457 1.134C22.0177 0.776406 21.6189 0.490934 21.1746 0.295714C20.7304 0.100494 20.2503 -0.000209128 19.7651 3.26065e-07ZM3.00008 3.5C3.00008 3.19058 3.123 2.89383 3.34179 2.67504C3.56058 2.45625 3.85733 2.33333 4.16675 2.33333H19.7651C19.927 2.33316 20.0871 2.36667 20.2353 2.43175C20.3836 2.49682 20.5166 2.59204 20.6261 2.71133L30.6921 13.6827C30.8899 13.8977 30.9998 14.1792 31.0001 14.4713V38.5C31.0001 38.8094 30.8772 39.1062 30.6584 39.325C30.4396 39.5438 30.1428 39.6667 29.8334 39.6667H4.16675C3.85733 39.6667 3.56058 39.5438 3.34179 39.325C3.123 39.1062 3.00008 38.8094 3.00008 38.5V3.5Z" fill="white"/>
<path d="M20.5 2.56668V13.5333H31.4667" stroke="white" stroke-linecap="round" stroke-linejoin="round"/>
<path d="M12.6461 11.977C12.9793 11.9872 13.3112 11.9304 13.622 11.8099C13.9329 11.6895 14.2163 11.5078 14.4556 11.2757C14.6949 11.0436 14.8852 10.7658 15.0151 10.4588C15.1451 10.1518 15.212 9.82187 15.212 9.48851C15.212 9.15515 15.1451 8.82518 15.0151 8.51818C14.8852 8.21117 14.6949 7.93339 14.4556 7.70131C14.2163 7.46922 13.9329 7.28755 13.622 7.16709C13.3112 7.04662 12.9793 6.9898 12.6461 7.00001C11.9993 7.01982 11.3856 7.29068 10.9351 7.7552C10.4846 8.21972 10.2327 8.8414 10.2327 9.48851C10.2327 10.1356 10.4846 10.7573 10.9351 11.2218C11.3856 11.6863 11.9993 11.9572 12.6461 11.977Z" fill="white"/>
<path fill-rule="evenodd" clip-rule="evenodd" d="M17.6207 17.3694C17.6207 14.7234 15.3924 12.8077 12.6437 12.8077C9.89508 12.8077 7.66675 14.721 7.66675 17.3694V18.6154C7.66737 18.8353 7.75515 19.046 7.91087 19.2012C8.06658 19.3565 8.27751 19.4437 8.49741 19.4437H16.7924C17.0119 19.4431 17.2222 19.3556 17.3775 19.2004C17.5327 19.0452 17.6201 18.8349 17.6207 18.6154V17.3694Z" fill="white"/>
</svg>
